# xmcd CD database file
#
# Track frame offsets:
#	150
#	21787
#	39872
#	61812
#	84325
#	107965
#
# Disc length: 1810 seconds
#
# Revision: 2
# Processed by: cddbd v1.5.1PL0 Copyright (c) Steve Scherf et al.
# Submitted via: CDex 1.51
#
DISCID=3d071006
DTITLE=Various Artist - 無限のリヴァイアス キャラクターソング・コレクション 「あしたから」
DYEAR=2000
DGENRE=Anime
TTITLE0=保志聡一朗/Sacred Sacrifice
TTITLE1=白鳥哲・関智一/がんばれ
TTITLE2=桑島法子/ホントの笑顔で
TTITLE3=檜山修之・千葉一伸・堀江由衣・長澤直美・江川央生/自分の自由は自分で決めろ
TTITLE4=氷上恭子/Masquerade
TTITLE5=丹下桜/独り立つ、私
EXTD=YEAR: 2000
EXTT0=
EXTT1=
EXTT2=
EXTT3=
EXTT4=
EXTT5=
PLAYORDER=
